<?xml version="1.0" encoding="UTF-8"?>
<svg width="2000" height="2000" xmlns="http://www.w3.org/2000/svg" version="1.1">
	<line id="16" x1="54.50" y1="19.90" x2="55.00" y2="37.00" stroke="#008000" stroke-width="1" />
	<line id="15" x1="39.00" y1="25.00" x2="48.00" y2="38.00" stroke="#008000" stroke-width="1" />
	<rect id="11" x="3.000000" y="29.000000" width="16.000000" height="16.000000" stroke="#d45500" fill="#803300" fill-opacity="0.5" />
	<rect id="10" x="0.000000" y="26.000000" width="16.000000" height="16.000000" stroke="#803300" fill="#d45500" fill-opacity="0.5" />
	<circle id="18" cx="35.000000" cy="20.000000" r="5.000000" stroke="#FF00FF" fill="#FF0000" fill-opacity="0.5" />
	<rect id="14" x="48.000000" y="35.000000" width="14.000000" height="29.000000" stroke="#800080" fill="#FF00FF" fill-opacity="0.5" />
	<circle id="19" cx="54.000000" cy="15.000000" r="5.000000" stroke="#FF00FF" fill="#FF0000" fill-opacity="0.5" />
	<line id="12" x1="75.00" y1="71.00" x2="91.00" y2="67.00" stroke="#c837ab" stroke-width="1" />
	<circle id="20" cx="73.000000" cy="19.000000" r="5.000000" stroke="#FF00FF" fill="#FF0000" fill-opacity="0.5" />
	<line id="17" x1="70.50" y1="23.30" x2="59.70" y2="38.30" stroke="#008000" stroke-width="1" />
	<text id="13" x="79.50" y="40.00" stroke="#165016" fill="#37c837" font-family="sans" font-weight="b" font-size="12px" text-anchor="start" dominant-baseline="middle">&lt;&gt;</text>
<circle cx="54.50" cy="19.90" r="2" fill="red" />
<circle cx="55.00" cy="37.00" r="2" fill="red" />/n<circle cx="75.00" cy="71.00" r="2" fill="red" />
<circle cx="91.00" cy="67.00" r="2" fill="red" />/n<circle cx="79.50" cy="40.00" r="2" fill="red" />/n<circle cx="73.00" cy="19.00" r="2" fill="red" />/n<circle cx="70.50" cy="23.30" r="2" fill="red" />
<circle cx="59.70" cy="38.30" r="2" fill="red" />/n<circle cx="39.00" cy="25.00" r="2" fill="red" />
<circle cx="48.00" cy="38.00" r="2" fill="red" />/n<circle cx="48.00" cy="35.00" r="2" fill="red" />/n<circle cx="54.00" cy="15.00" r="2" fill="red" />/n<circle cx="35.00" cy="20.00" r="2" fill="red" />/n<rect x="0.00" y="15.00" width="150.00" height="150.00" stroke="red" fill="none" stroke-dasharray="5.5" />/n</svg>
